<?xml version="1.0" standalone="no"?><!DOCTYPE svg PUBLIC "-//W3C//DTD SVG 1.1//EN" "http://www.w3.org/Graphics/SVG/1.1/DTD/svg11.dtd"><svg t="1696262070964" class="icon" viewBox="0 0 1029 1024" version="1.1" xmlns="http://www.w3.org/2000/svg" p-id="2075" xmlns:xlink="http://www.w3.org/1999/xlink" width="200.9765625" height="200"><path d="M894.545171 216.211294c0.267631 21.974827-17.809093 39.778102-39.789738 39.778103a39.78392 39.78392 0 1 1 0-79.550387 39.78392 39.78392 0 0 1 39.789738 39.737376v0.034908z m-39.586106-72.911975h-0.203632c-40.319182 0.063999-72.946884 32.790608-72.882885 73.098153a72.981792 72.981792 0 0 0 21.282477 51.390958 72.818887 72.818887 0 0 0 51.582954 21.323204c40.214457 0.058181 72.859613-32.488068 72.911975-72.690889v-0.209451c0.069817-40.202821-32.476432-72.842159-72.690889-72.911975zM312.837698 930.494988l-16.692025-5.585342-5.562069-16.680389a9.268176 9.268176 0 0 0-8.913274-6.411506 9.273994 9.273994 0 0 0-8.901637 6.411506l-5.585342 16.686207-16.674571 5.562069a9.279812 9.279812 0 0 0-6.411506 8.913274c0 4.159916 2.501767 7.51112 6.411506 8.890002l16.680389 5.585341 5.562069 16.680389a9.273994 9.273994 0 0 0 8.919092 6.39987c4.165734 0 7.51112-2.490131 8.89582-6.39987l5.585341-16.680389 16.680389-5.567887a9.268176 9.268176 0 0 0 6.39987-8.907456 9.273994 9.273994 0 0 0-6.39987-8.895819M475.941299 46.469283l16.697843 5.562069 5.573705 16.697843c1.250884 3.84574 4.852265 6.440597 8.895819 6.39987 4.183188 0 7.51112-2.501767 8.913274-6.39987l5.567887-16.697843 16.697843-5.562069a9.268176 9.268176 0 0 0 6.399871-8.901638 9.268176 9.268176 0 0 0-6.399871-8.901637l-16.697843-5.567887-5.567887-16.697844A9.273994 9.273994 0 0 0 507.108666 0.000407a9.268176 9.268176 0 0 0-8.901637 6.39987l-5.562069 16.697844-16.721115 5.562069a9.268176 9.268176 0 0 0-6.382416 8.901637c0 4.17737 2.490131 7.505302 6.382416 8.901638h0.017454zM37.858548 425.737226c1.256702 3.839922 4.858083 6.423142 8.89582 6.382416 4.183188 0 7.51112-2.495949 8.913274-6.382416l7.796205-23.667883 23.656248-7.778752a9.273994 9.273994 0 0 0 6.411506-8.913273 9.268176 9.268176 0 0 0-6.411506-8.89582l-23.662066-7.796206-7.796205-23.662065a9.273994 9.273994 0 0 0-8.890002-6.394052 9.279812 9.279812 0 0 0-8.913274 6.394052l-7.802023 23.662065-23.656248 7.796206A9.273994 9.273994 0 0 0 0.000407 385.388954c0 4.171552 2.513404 7.505302 6.39987 8.901637l23.656248 7.78457 7.802023 23.667883zM215.705123 122.162293a18.926162 18.926162 0 1 0 37.852323 0.034908 18.926162 18.926162 0 0 0-37.852323-0.052362v0.017454zM478.722333 1005.047657a18.926162 18.926162 0 1 0 37.858141 0 18.926162 18.926162 0 0 0-37.858141 0" fill="#B3DBFF" p-id="2076"></path><path d="M986.104041 572.922604a18.937798 18.937798 0 1 0 37.875596 0 18.937798 18.937798 0 0 0-37.875596 0" fill="#B3DBFF" p-id="2077"></path><path d="M647.952355 122.162293a18.926162 18.926162 0 1 0 37.846505 0 18.926162 18.926162 0 0 0-37.846505 0M951.88219 770.7775l-23.662065-7.807842-7.78457-23.638793a9.28563 9.28563 0 0 0-8.919092-6.411506 9.279812 9.279812 0 0 0-8.913273 6.411506l-7.78457 23.638793-23.673701 7.802024a9.262358 9.262358 0 0 0-6.382416 8.89582c0 4.17737 2.495949 7.51112 6.382416 8.913273l23.673701 7.778752 7.78457 23.662065a9.268176 9.268176 0 0 0 8.913273 6.39987c4.165734 0 7.51112-2.501767 8.901638-6.39987l7.802024-23.662065 23.662065-7.778752a9.279812 9.279812 0 0 0 6.394052-8.901637 9.64635 9.64635 0 0 0-6.394052-8.901638M365.089729 269.2604c-54.189446 0-97.935468 43.740204-97.935468 97.92965s43.75184 97.935468 97.935468 97.935468c54.189446 0 97.935468-43.746022 97.935468-97.935468 0-54.189446-43.746022-97.92965-97.935468-97.92965m0 32.639338c35.90909 0 65.290312 29.381222 65.290312 65.290312s-29.381222 65.290312-65.290312 65.290312-65.290312-29.381222-65.290312-65.290312S329.186457 301.899738 365.089729 301.899738" fill="#B3DBFF" p-id="2078"></path><path d="M789.465121 399.829388c-161.916716 0-300.980077 98.267098-360.719956 238.307893a129.876638 129.876638 0 0 0-96.294774-42.436957c-39.178842 0-74.110497 17.302922-97.935468 44.397645V269.2604c0-17.960363 14.684793-32.650974 32.639338-32.650974h489.665704c17.960363 0 32.639338 14.690611 32.639338 32.650974v130.568988z m0 359.090898c0 17.960363-14.684793 32.639338-32.645156 32.639338H430.380041c0-42.105328 7.179491-82.255786 20.561038-119.479758 49.296455-139.383355 182.163578-239.605322 338.524042-239.605322v326.45156z m-531.125227 31.34191a32.616066 32.616066 0 0 1-23.824971-31.34191v-32.639338c0-53.863635 44.066015-97.935468 97.935468-97.935468 34.925837 0 65.610306 18.606168 83.239039 46.020885-11.752489 36.898161-17.954545 76.391178-17.954545 117.193259H267.165897c-2.938122 0-6.202056-0.319994-8.820185-1.297428z m498.480071-586.297926H267.160079c-35.90909 0-65.290312 29.381222-65.290312 65.29613v489.659886c0 36.054541 29.235771 65.278676 65.290312 65.278676h489.659886c35.90909 0 65.290312-29.369586 65.290312-65.278676V269.2604c0-35.90909-29.381222-65.29613-65.290312-65.29613z" fill="#B3DBFF" p-id="2079"></path></svg>